<?xml version="1.0" encoding="UTF-8"?>
<svg xmlns="http://www.w3.org/2000/svg" viewBox="0 0 512 512">
  <defs>
    <symbol id="sign" viewBox="0 0 512 512">
      <path d="M256 48C141.1 48 48 141.1 48 256s93.1 208 208 208 208-93.1 208-208S370.9 48 256 48zm0 384c-97.2 0-176-78.8-176-176S158.8 80 256 80s176 78.8 176 176-78.8 176-176 176z" fill="currentColor"/>
      <path d="M369.8 169.6c-3.1-3.1-8.2-3.1-11.3 0L256 272 153.5 169.6c-3.1-3.1-8.2-3.1-11.3 0s-3.1 8.2 0 11.3L245.3 284c1.6 1.6 3.6 2.3 5.7 2.3s4.1-.8 5.7-2.3l103.1-103.1c3.1-3.1 3.1-8.2 0-11.3z" fill="currentColor"/>
    </symbol>
  </defs>
</svg>
</svg>
