<?xml version="1.0" encoding="UTF-8"?>
<svg width="512" height="512" viewBox="0 0 512 512" fill="none" xmlns="http://www.w3.org/2000/svg">
  <path d="M256 64c-106 0-192 86-192 192s86 192 192 192 192-86 192-192S362 64 256 64zm0 352c-88.2 0-160-71.8-160-160S167.8 96 256 96s160 71.8 160 160-71.8 160-160 160z" fill="currentColor"/>
  <path d="M256 128c-70.7 0-128 57.3-128 128s57.3 128 128 128 128-57.3 128-128-57.3-128-128-128zm0 224c-53 0-96-43-96-96s43-96 96-96 96 43 96 96-43 96-96 96z" fill="currentColor" fillOpacity="0.4"/>
  <path d="M363.7 190.7L256 298.3 148.3 190.7c-6.2-6.2-16.4-6.2-22.6 0-6.2 6.2-6.2 16.4 0 22.6l96 96c3.1 3.1 7.2 4.7 11.3 4.7s8.2-1.6 11.3-4.7l96-96c6.2-6.2 6.2-16.4 0-22.6-6.2-6.3-16.4-6.3-22.6 0z" fill="currentColor"/>
</svg>
