<?xml version="1.0" encoding="UTF-8"?>
<svg width="512" height="512" viewBox="0 0 512 512" fill="none" xmlns="http://www.w3.org/2000/svg">
  <path d="M256 64c-106 0-192 86-192 192s86 192 192 192 192-86 192-192S362 64 256 64zm0 352c-88.2 0-160-71.8-160-160S167.8 96 256 96s160 71.8 160 160-71.8 160-160 160z" fill="currentColor"/>
  <path d="M341.3 170.7c-6.2-6.2-16.4-6.2-22.6 0L256 233.4l-62.7-62.7c-6.2-6.2-16.4-6.2-22.6 0s-6.2 16.4 0 22.6L233.4 256l-62.7 62.7c-6.2 6.2-6.2 16.4 0 22.6s16.4 6.2 22.6 0l62.7-62.7 62.7 62.7c6.2 6.2 16.4 6.2 22.6 0s6.2-16.4 0-22.6L278.6 256l62.7-62.7c6.2-6.2 6.2-16.4 0-22.6z" fill="currentColor"/>
</svg>
